<?xml version="1.0" encoding="UTF-8" standalone="no"?>
<!-- Created with Inkscape (http://www.inkscape.org/) -->

<svg
   width="210mm"
   height="297mm"
   viewBox="0 0 210.00042 297.00059"
   version="1.1"
   id="svg1"
   sodipodi:docname="anti-reform.svg"
   inkscape:version="1.3.2 (091e20ef0f, 2023-11-25, custom)"
   inkscape:export-filename="anti-reform.pdf"
   inkscape:export-xdpi="96"
   inkscape:export-ydpi="96"
   xmlns:inkscape="http://www.inkscape.org/namespaces/inkscape"
   xmlns:sodipodi="http://sodipodi.sourceforge.net/DTD/sodipodi-0.dtd"
   xmlns:xlink="http://www.w3.org/1999/xlink"
   xmlns="http://www.w3.org/2000/svg"
   xmlns:svg="http://www.w3.org/2000/svg">
  <sodipodi:namedview
     id="namedview1"
     pagecolor="#ffffff"
     bordercolor="#000000"
     borderopacity="0.25"
     inkscape:showpageshadow="2"
     inkscape:pageopacity="0.0"
     inkscape:pagecheckerboard="0"
     inkscape:deskcolor="#d1d1d1"
     inkscape:document-units="mm"
     inkscape:zoom="1.0582793"
     inkscape:cx="309.93708"
     inkscape:cy="147.4091"
     inkscape:window-width="1920"
     inkscape:window-height="1016"
     inkscape:window-x="0"
     inkscape:window-y="0"
     inkscape:window-maximized="1"
     inkscape:current-layer="g1"
     showgrid="false" />
  <defs
     id="defs1">
    <inkscape:path-effect
       effect="powerclip"
       id="path-effect6"
       is_visible="true"
       lpeversion="1"
       inverse="true"
       flatten="false"
       hide_clip="false"
       message="Use fill-rule evenodd on &lt;b&gt;fill and stroke&lt;/b&gt; dialog if no flatten result after convert clip to paths." />
    <inkscape:path-effect
       effect="powerclip"
       id="path-effect4"
       is_visible="true"
       lpeversion="1"
       inverse="true"
       flatten="false"
       hide_clip="false"
       message="Use fill-rule evenodd on &lt;b&gt;fill and stroke&lt;/b&gt; dialog if no flatten result after convert clip to paths." />
    <clipPath
       clipPathUnits="userSpaceOnUse"
       id="clipPath5">
      <g
         inkscape:label="Clip"
         id="use5" />
    </clipPath>
    <clipPath
       clipPathUnits="userSpaceOnUse"
       id="clipPath7">
      <g
         inkscape:label="Clip"
         id="use7" />
    </clipPath>
    <inkscape:path-effect
       effect="powerclip"
       id="path-effect15"
       is_visible="true"
       lpeversion="1"
       inverse="true"
       flatten="false"
       hide_clip="false"
       message="Use fill-rule evenodd on &lt;b&gt;fill and stroke&lt;/b&gt; dialog if no flatten result after convert clip to paths." />
    <clipPath
       clipPathUnits="userSpaceOnUse"
       id="clipPath6">
      <path
         style="display:block;fill:#808080;stroke-width:2.38506"
         d="M 11.903688,52.499434 24.043743,-1.5911012 41.773834,33.198624 Z"
         id="path6"
         inkscape:label="Clip" />
    </clipPath>
    <clipPath
       clipPathUnits="userSpaceOnUse"
       id="clipPath1">
      <ellipse
         style="display:inline;fill:#8c8c8c;fill-opacity:1;stroke:none;stroke-width:1.81412;stroke-dasharray:none;stroke-opacity:1"
         id="circle2"
         cx="19.640163"
         cy="19.554756"
         inkscape:label="Clip"
         rx="20.261435"
         ry="20.182274" />
    </clipPath>
  </defs>
  <g
     id="g38"
     inkscape:label="Buttons"
     transform="translate(3.7041739,-1.5875031)"
     inkscape:groupmode="layer">
    <g
       inkscape:label="Button"
       id="layer1"
       clip-path="none"
       style="display:inline"
       transform="matrix(1.2536156,0,0,1.2585327,6.1725689,8.2840735)">
      <g
         id="g1"
         inkscape:label="Button"
         clip-path="url(#clipPath1)">
        <rect
           style="display:inline;fill:#ffffff;stroke-width:2.28772;stroke-dasharray:none"
           id="rect1"
           width="40.522869"
           height="40.364548"
           x="-0.62127167"
           y="-0.62751943"
           inkscape:label="background" />
        <g
           id="g2"
           inkscape:label="socialist international"
           transform="matrix(0.42825355,0,0,0.42825355,-4.5529238,9.569824)"
           style="display:inline">
          <path
             style="clip-rule:evenodd;fill:#2b2828;fill-rule:evenodd;stroke-width:0.266723;image-rendering:optimizeQuality;shape-rendering:geometricPrecision;text-rendering:geometricPrecision"
             id="path1355"
             d="m 39.668805,13.985481 c -0.57596,-0.191237 -1.226934,-0.257566 -1.72788,-0.573707 -0.289887,-0.259153 -0.662417,-0.454189 -0.969151,-0.761307 -0.246658,-0.299045 -0.520017,-0.607588 -0.744107,-0.940985 -0.238871,-0.355086 -0.504283,-0.99576 -0.586927,-1.408629 -0.16179,-0.8247866 -0.0596,-1.9383282 0.156069,-2.9755649 0.301489,-1.4512136 0.808633,-2.2679266 1.689737,-3.4555564 0.618553,-0.833969 0.84614,-0.9329117 1.52159,-1.6733204 0.204065,-0.1845875 0.440711,-0.3389382 0.612196,-0.5537628 0.359657,-0.4503874 0.403998,-0.5732347 0.692137,-1.31950062 0.130322,-0.33767194 0.130799,-0.71191308 0.196119,-1.06779056 0.06007,-0.59397322 0.07899,-0.77761092 0.139222,-1.37158432 0.03067,-0.3031605 0.146692,-0.9373442 0.250949,-1.2251489 0.06437,-0.177622 0.129051,-0.3554023 0.193418,-0.5330244 0.179749,-0.4955053 0.388423,-0.9363944 0.667185,-1.3883651 0.551803,-0.8947591 1.562117,-1.3681014 2.38108,-2.0132082 1.177984,-0.9276875 2.773159,-1.2355972 4.240871,-1.2355972 0.625069,-0.00886 1.250298,-0.017732 1.875526,-0.026754 0.445797,0.035778 0.893501,0.1367785 1.302744,-0.1000509 0.576754,-0.333714 0.979958,-1.0801383 1.542568,-1.4374413 1.443715,-1.190796 3.082912,-1.141087 4.873251,-1.127156 1.991862,0.01615 4.379776,1.039612 5.844629,2.4371591 0.724399,0.5860579 0.409084,1.6022397 1.041145,1.7421843 1.138254,0.2518687 1.518253,0.048759 3.07433,0.764788 0.774145,0.356194 2.056864,0.9861033 2.974522,1.7550073 0.763498,0.6397245 1.181639,1.6000233 1.4043,2.5968916 0.306734,1.37395881 0.141766,2.4417491 -0.05737,3.8122252 -0.09536,0.6565051 0.05531,1.0484769 0.432286,1.6011315 0.469001,0.4684348 0.973283,0.8670555 1.26476,1.4722685 0.113158,0.2350882 0.224885,0.4481713 0.311184,0.6690115 0.268433,0.687217 0.223931,1.5819761 0.177048,2.303071 -0.07628,1.1738571 -0.343606,2.086188 -0.800688,3.146538 -0.571508,1.324092 -0.856945,2.387607 0.776371,3.015617 0.540518,0.208018 1.106783,0.384214 1.381892,0.528908 0.866959,0.456087 1.418284,0.622311 2.219923,1.190955 1.306082,0.926423 2.230098,1.560446 3.226744,2.506815 0.559113,0.531123 1.10154,1.116865 1.661925,1.814689 -0.306892,0.281472 -0.821346,1.054649 -1.127922,1.335964 -0.747762,0.686111 -1.68195,1.447099 -2.479297,2.127825 -0.560385,0.47825 -1.275092,1.004624 -2.004895,1.493797 -0.643983,0.43155 -1.300042,0.834444 -1.872189,1.149321 -0.506666,0.27878 -1.156528,0.50437 -1.508715,0.966472 -0.0898,0.117781 -0.180068,0.235562 -0.269863,0.353503 -0.242207,0.317408 -0.337088,0.564686 -0.155751,0.926736 0.148757,0.297305 0.294497,0.765424 0.420052,1.099928 0.129208,0.672021 0.184675,0.960458 0.313886,1.632634 3.781883,0 7.563766,0 11.345809,0 0,8.565911 0,17.131982 0,25.69805 -3.840052,0 -7.680103,0 -11.520155,0 -0.0445,0.366325 -0.089,0.732811 -0.133503,1.099293 -0.06818,0.564846 -0.179907,0.852017 -0.443254,1.359395 -0.09424,0.181421 -0.188488,0.363003 -0.282575,0.544425 -0.229495,0.421733 -0.418462,0.877185 -0.745696,1.230688 -0.303239,0.328491 -0.628884,0.728853 -1.020327,0.951909 -0.435627,0.248227 -1.096772,0.538723 -1.858043,0.559303 -0.04323,0.0011 -0.08662,0.0038 -0.130165,0.0038 -8.640513,0 -17.280707,0 -25.920902,0 -0.501422,-0.05763 -0.967562,-0.0448 -1.410657,-0.289705 -0.370782,-0.20517 -0.749034,-0.391972 -1.090097,-0.643524 -0.37857,-0.279414 -0.753325,-0.543156 -1.067051,-0.929431 -0.237441,-0.292393 -0.346149,-0.65492 -0.486006,-1.003833 -0.19008,-0.473659 -0.300695,-0.792174 -0.340586,-1.297812 -0.05213,-0.659038 -0.07486,-1.114491 0.06596,-1.756274 0.08868,-0.404161 0.15432,-0.691965 0.355366,-1.05101 0.204542,-0.364585 0.409084,-0.729326 0.613626,-1.093911 0.116336,-0.05018 0.137792,0.152928 -0.513024,-0.379622 -0.0418,-0.0342 -0.0898,-0.07156 -0.140811,-0.115724 -0.246977,-0.213243 -0.490774,-0.385007 -0.748558,-0.597458 -0.392714,-0.323422 -0.849318,-0.627376 -1.157482,-1.032328 -0.845346,-1.110218 -1.430842,-2.32001 -1.376805,-3.72753 0.01208,-0.317409 0.04847,-0.612813 0.156068,-0.970905 0.18261,-0.606956 0.357909,-0.787111 0.694998,-1.319344 0.363789,-0.574658 0.981866,-1.089953 1.448959,-1.595749 -0.112999,-0.106383 -0.226156,-0.213082 -0.339155,-0.31915 -1.150331,-1.081879 -2.246149,-2.481959 -2.035885,-4.219711 0.267955,-2.215052 1.041305,-2.765805 2.336102,-3.846103 0.07406,0.120316 -2.444333,-0.776502 -2.520619,-3.87634 -0.04227,-1.718439 0.991242,-2.829922 2.085789,-3.998396 -0.53973,-0.38975 -1.101069,-0.700982 -1.625854,-1.265668 -0.31754,-0.341473 -0.705169,-0.688169 -0.995851,-1.052751 -0.602978,-0.657931 -1.082309,-1.356863 -1.685287,-2.014634 -0.287027,-0.268018 -0.574053,-0.536349 -0.861238,-0.804523 -0.244434,-0.228282 -0.456763,-0.448013 -0.746333,-0.615344 -0.813559,-0.470653 -1.627436,-0.941146 -2.440996,-1.411639 0.962,-0.757981 1.92384,-1.515961 2.885681,-2.273782 1.13412,-0.948586 2.238997,-2.248772 3.354681,-3.283317 0.165604,-0.153878 0.315634,-0.268017 0.507779,-0.386275 1.068005,-0.658402 1.4488,-0.921037 1.825781,-1.054965 0.52701,-0.145962 0.878561,-0.329281 1.405412,-0.475086 z"
             class="fil0" />
          <path
             style="clip-rule:evenodd;fill:#ffffff;fill-rule:evenodd;stroke-width:0.266723;image-rendering:optimizeQuality;shape-rendering:geometricPrecision;text-rendering:geometricPrecision"
             id="path1363"
             d="m 42.233131,29.566199 c -1.521431,0 -2.755041,1.187946 -2.755041,2.652615 0,1.464512 1.23361,2.652459 2.755041,2.652459 h 5.871168 v -5.305074 z m 0,8.22333 c -1.521431,0 -2.755041,1.187947 -2.755041,2.652616 0,1.464512 1.23361,2.652459 2.755041,2.652459 h 5.871168 v -5.305075 z m 2.42701,16.989979 c -1.521431,0 -2.755041,1.188104 -2.755041,2.652616 0,1.464509 1.23361,2.652456 2.755041,2.652456 h 2.935584 6.333813 c 1.521431,0 2.75504,-1.187947 2.75504,-2.652616 0,-1.464511 -1.233609,-2.652456 -2.75504,-2.652456 h -6.333813 z m -2.42701,-8.660423 c -1.521431,0 -2.755041,1.187947 -2.755041,2.652618 0,1.46451 1.23361,2.652457 2.755041,2.652457 h 2.935584 2.935584 5.825239 c 1.521431,0 2.75504,-1.187947 2.75504,-2.652616 0,-1.464512 -1.233609,-2.652459 -2.75504,-2.652459 h -5.825239 -2.935584 z m 26.759731,-0.43614 h -7.661824 c -1.461356,0.01107 -3.396164,-1.337547 -3.091017,-1.277074 0.369668,0.78996 1.073567,1.330743 1.374262,2.675257 v 3.191496 c -0.117607,1.142511 -0.634923,2.171834 -1.461515,2.8657 0.832789,0.831279 1.562117,1.576436 1.461515,2.777046 v 4.074701 h 9.0906 c 2.496304,0.239837 3.176523,-2.929338 3.614849,-5.451984 h 2.29351 8.747791 V 34.246112 h -8.747791 c 0,2.559373 0,3.445899 0,6.005747 0,0.06142 -0.0013,0.124114 0,0.18427 0.07454,3.372921 -1.924,5.290354 -5.300612,5.24745 -0.0037,0 -0.0075,0 -0.0108,0 -0.158613,-0.0021 -0.268272,0.0049 -0.30896,-5.33e-4 z m 2.319574,-5.365231 c 0,1.336916 -1.142543,2.425128 -2.564323,2.458374 v 0.0011 h -0.06675 -5.867991 c -1.557192,0 -2.820044,-1.183512 -2.820044,-2.642641 v -5.719841 h -3.291585 v 5.885748 0.188229 h -0.0078 c -0.102986,1.279448 -1.244099,2.288505 -2.636639,2.288505 l -2.879482,0.01408 V 31.850431 c 0,-1.459446 1.262853,-2.642961 2.820043,-2.642961 0.04053,0 0.08074,7.99e-4 0.120945,0.0024 l 2.582921,0.0046 h 11.582294 c 0.06898,-0.0047 0.13811,-0.007 0.208359,-0.007 1.557188,0 2.82004,1.183515 2.82004,2.642961 v 8.467283 z"
             class="fil3" />
          <path
             style="clip-rule:evenodd;fill:#009e62;fill-rule:evenodd;stroke-width:0.266723;image-rendering:optimizeQuality;shape-rendering:geometricPrecision;text-rendering:geometricPrecision"
             id="path1359"
             d="m 80.609329,20.67718 c -1.476771,0.0725 -3.350868,0.257252 -5.475276,0.495662 0.0302,0.04955 0.06214,0.09973 0.09488,0.151977 0.466774,0.744367 1.079767,1.538282 1.643648,2.180065 l 0.0021,-0.0019 0.0054,-0.0035 c 1.249025,-0.792967 2.1705,-1.547783 3.092447,-2.303231 0.213284,-0.174773 0.426089,-0.349228 0.636831,-0.519251 z m -3.524896,-3.605001 c -0.260485,0.365061 -0.658443,0.835711 -0.971375,1.226575 -0.470748,0.587641 -0.966131,1.206627 -1.33008,1.815638 2.238679,-0.252817 4.221641,-0.449911 5.800445,-0.526374 -0.714068,-0.718404 -1.449911,-1.279925 -2.195292,-1.756908 -0.431811,-0.276249 -0.867595,-0.524317 -1.303698,-0.758931 z m -3.82368,-1.795374 c -0.270656,0.465901 -0.626817,1.032804 -0.867756,1.433797 -0.729803,1.214386 -1.453727,2.418638 -2.110422,3.931751 l 0.68133,-0.08137 c 0.859968,-0.102267 1.698161,-0.201683 2.509178,-0.296195 0.404634,-0.922304 1.116796,-1.812315 1.783345,-2.644542 0.296087,-0.369967 0.582794,-0.727902 0.824844,-1.070163 C 75.473525,16.238531 74.855768,15.937428 74.217667,15.66213 73.905211,15.52741 73.5864,15.398547 73.260753,15.276808 Z m -3.925557,-0.725211 c -0.210421,0.293027 -0.74649,1.012541 -1.002049,1.365727 -1.113141,1.536541 -2.502024,3.453814 -3.316696,5.330718 1.361706,-0.148016 2.710063,-0.303792 4.022503,-0.458301 0.749986,-1.866458 1.579439,-3.245642 2.416042,-4.637962 0.252064,-0.419361 0.504761,-0.840144 0.734731,-1.237498 -1.177349,-0.255511 -2.078954,-0.335774 -2.854531,-0.362684 z m -5.003889,0.274981 c -1.040511,1.315386 -2.358036,3.623363 -3.014256,5.418264 -0.133343,0.364901 -0.254605,0.725211 -0.362359,1.077289 -0.03465,0.112875 -0.06866,0.227488 -0.101714,0.342738 0.974873,-0.0877 1.954354,-0.183954 2.930181,-0.28559 0.817214,-2.168983 2.409209,-4.366779 3.663161,-6.097722 0.214398,-0.296195 0.315637,-0.432024 0.543541,-0.755132 -1.103766,-0.01632 -2.417317,0.06396 -3.658078,0.299993 l -5.35e-4,1.6e-4 z m -8.180731,7.184827 c 1.158435,-0.06301 2.34389,-0.146909 3.540786,-0.246168 0.06643,-0.247911 0.139382,-0.501521 0.218211,-0.758773 0.118401,-0.386746 0.245386,-0.765421 0.379524,-1.132697 0.69325,-1.896376 1.283353,-3.23994 2.365186,-4.606457 -2.380443,0.741516 -3.946851,1.629943 -4.946995,2.726385 -1.007135,1.103886 -1.44133,2.42307 -1.556712,4.01771 z m 5.385005,5.470349 c -0.413377,-0.749116 -0.565314,-1.405304 -0.919249,-2.196054 -0.356479,-0.796451 -0.664165,-1.605881 -0.901447,-2.428609 -1.169402,0.09609 -2.330064,0.177463 -3.469111,0.239994 0.452949,1.582453 1.15653,2.58676 2.084996,3.245005 0.873314,0.618829 1.94895,0.93497 3.204811,1.139664 z m 4.624367,0.129496 c -0.932915,-1.513903 -1.710876,-3.296297 -2.358354,-5.137426 -0.989016,0.102426 -1.982645,0.199627 -2.972775,0.287807 0.214556,0.707796 0.481559,1.400711 0.785588,2.080173 0.387472,0.865629 0.994104,1.848092 1.487261,2.691718 0.447704,0.0093 0.915911,0.02295 1.3838,0.03641 0.570714,0.01632 1.141431,0.03214 1.67448,0.04132 z m 5.653118,-1.113067 c -0.79576,-0.884152 -1.691328,-2.240855 -2.280479,-3.499566 -0.113633,-0.242845 -0.224407,-0.495346 -0.330573,-0.755606 -0.0472,-0.115566 -0.09456,-0.234455 -0.14097,-0.356828 -1.349947,0.158785 -2.738036,0.318519 -4.140746,0.469703 0.632379,1.67791 1.718662,3.422945 2.598812,4.838063 l 0.283214,0.315034 0.246339,-0.041 c 1.099792,-0.184904 2.042243,-0.343688 2.937969,-0.663154 0.285119,-0.101633 0.559909,-0.203583 0.826434,-0.306643 z m 2.202919,-5.075683 -0.06373,-0.114933 c -0.918452,0.106225 -1.875048,0.220048 -2.859935,0.337195 l -0.90828,0.108286 0.03322,0.08026 c 0.0944,0.231449 0.198184,0.467168 0.309275,0.704631 0.46058,0.983887 0.855519,2.057535 1.692282,2.766284 0.255877,0.216723 0.914638,0.44247 1.096929,0.552494 0.277811,-0.132345 0.548306,-0.269439 0.813083,-0.41445 0.652088,-0.357301 1.273184,-0.761148 1.898253,-1.24209 -0.589152,-0.672968 -1.230908,-1.507413 -1.727563,-2.29943 -0.09488,-0.151341 -0.189918,-0.311232 -0.283529,-0.478247 z"
             class="fil2" />
          <path
             style="clip-rule:evenodd;fill:#009e62;fill-rule:evenodd;stroke-width:0.266723;image-rendering:optimizeQuality;shape-rendering:geometricPrecision;text-rendering:geometricPrecision"
             id="path1361"
             d="m 35.628185,18.155328 c -1.084216,0.890642 -2.118847,1.740917 -2.774271,2.870446 1.983756,-0.102267 3.601498,-0.164324 5.673619,-0.205008 -0.799255,-1.034705 -1.716278,-1.988197 -2.448624,-2.749502 -0.119356,-0.124114 -0.09758,-0.10005 -0.15448,-0.159575 l -0.0011,0.0011 -0.0016,0.0011 -0.293225,0.241421 z m -2.482954,3.946944 c 0.501581,0.474292 1.013175,1.008109 1.539708,1.556964 0.358227,0.373449 0.72297,0.753705 1.095977,1.127155 0.596621,-0.51751 1.372991,-1.17164 1.853275,-1.766247 0.288775,-0.357618 0.560067,-0.727585 0.815149,-1.108634 -2.015224,0.04116 -3.370574,0.09103 -5.304109,0.190762 z m 3.497877,3.515398 c 0.218051,0.200734 0.4423,0.398621 0.672748,0.590331 0.228699,0.19013 0.460418,0.372183 0.69468,0.541732 0.08487,0.06158 0.167035,0.120155 0.247453,0.176196 0.202476,-0.138361 0.857106,-0.250759 0.946742,-0.372816 0.164016,-0.223372 0.144149,-0.195035 0.321356,-0.434555 1.013969,-1.369526 2.185755,-2.950871 2.920962,-4.230794 l -0.05769,-5.32e-4 c -0.887462,-0.0082 -1.763957,-0.0065 -2.632029,0.0033 -0.386675,0.633709 -0.808156,1.239555 -1.27064,1.812315 -0.517951,0.640833 -1.202778,1.352587 -1.843581,1.914899 z m 3.656011,2.082704 0.05133,0.0019 0.07788,0.0011 c 0.422116,0.0013 0.841531,0.0081 1.258243,0.01424 1.786843,0.02707 3.531093,0.05367 5.20748,-0.311075 -0.32501,-0.808958 -0.670046,-1.673955 -1.039716,-2.683645 -0.332798,-0.9098 -0.654789,-1.859174 -0.918135,-2.78433 -0.421004,-0.01315 -0.839147,-0.02374 -1.254429,-0.03214 -0.736797,1.431582 -1.90604,3.010077 -3.072582,4.58556 -0.07613,0.102903 -0.316587,0.834921 -0.298151,1.098029 0.0032,0.0448 -0.003,0.08169 -0.01192,0.110498 z m 7.660714,-0.573393 c 1.169243,-0.353026 2.044149,-0.796923 2.760444,-1.400555 0.913208,-0.770012 1.573877,-1.803448 2.263472,-3.24279 -2.513786,-0.271656 -4.587973,-0.407643 -6.894992,-0.503103 0.237123,0.797083 0.511594,1.600499 0.793534,2.371145 0.365538,0.998768 0.748558,1.95669 1.077542,2.775303 z m 5.159642,-5.725064 v -5.33e-4 c 0.25969,-2.215368 -0.148758,-3.790852 -1.100904,-4.936688 -0.952464,-1.146313 -2.45228,-1.868356 -4.373577,-2.37431 -0.05642,0.452602 -0.06882,0.792648 -0.03576,1.100558 0.01558,0.145804 -0.0035,-0.03546 0.01097,0.107176 0.09329,0.912806 0.198502,1.937062 0.827068,5.713827 1.614087,0.100049 2.967688,0.205484 4.672206,0.389914 z m -6.857167,-7.546563 -0.01351,-0.0016 h -3.21e-4 l -0.0059,-5.32e-4 c -0.500628,-0.04971 -0.943564,-0.05588 -1.342,-0.03293 -0.398118,0.02279 -0.751736,0.07456 -1.073727,0.140262 h -1.59e-4 l -0.0022,5.32e-4 -0.0035,5.32e-4 -0.01574,0.0033 c -0.04021,0.311235 -0.0623,0.922147 -0.05737,1.271848 0.0051,0.367436 1.59e-4,0.731861 0.07009,1.107528 0.164015,0.881934 0.263981,1.489524 0.370623,2.597999 0.03989,0.413659 0.07295,0.808481 0.09901,1.181297 0.01589,0.227808 0.03083,0.464953 0.04434,0.709223 0.983137,0.02502 1.980896,0.06269 2.99566,0.115247 -0.595985,-3.598666 -0.701514,-4.625614 -0.795442,-5.543328 -0.03496,-0.343688 -0.07501,-0.720936 -0.139063,-1.207417 -0.01383,-0.105909 -0.09488,-0.223373 -0.130799,-0.342104 z m -4.002477,0.520991 -0.0033,0.0011 c -0.897792,0.309968 -1.868056,0.676768 -2.819248,1.132854 -0.949762,0.455295 -1.881724,1.000352 -2.704501,1.667304 0.0712,0.07472 0.02034,0.0201 0.134454,0.138681 0.898428,0.934019 2.066718,2.14872 3.001063,3.484526 0.833108,-0.0085 1.675752,-0.0097 2.529679,-0.0019 0.277809,0.0027 0.557047,0.0068 0.837081,0.01123 -0.0116,-0.199628 -0.02527,-0.404635 -0.03989,-0.61392 -0.02877,-0.412235 -0.06055,-0.797716 -0.09456,-1.151536 -0.182451,-1.894635 -0.43054,-3.487851 -0.840736,-4.668357 z"
             class="fil2" />
          <path
             style="clip-rule:evenodd;fill:#009e62;fill-rule:evenodd;stroke-width:0.266723;image-rendering:optimizeQuality;shape-rendering:geometricPrecision;text-rendering:geometricPrecision"
             id="path1365"
             d="m 54.913628,17.659822 c 0.199615,0.0041 0.374915,0.51086 0.496972,1.325198 0.122217,0.814498 0.202,1.935479 0.194689,3.174717 -0.0032,1.241773 -0.105688,2.365129 -0.24793,3.179943 -0.142083,0.814022 -0.330414,1.319342 -0.54322,1.323457 -0.212648,0.0041 -0.400503,-0.495029 -0.5731,-1.306201 -0.174186,-0.819404 -0.37555,-1.951153 -0.350916,-3.204479 0.02447,-1.253329 0.270657,-2.379059 0.46026,-3.196408 0.186741,-0.805313 0.36363,-1.300345 0.563245,-1.296227 z"
             class="fil2" />
          <path
             style="clip-rule:evenodd;fill:#d82628;fill-rule:evenodd;stroke-width:0.266723;image-rendering:optimizeQuality;shape-rendering:geometricPrecision;text-rendering:geometricPrecision"
             id="path1357"
             d="m 42.274611,-0.73878518 c 0,-0.21165839 0,-0.42331682 0,-0.63497512 0,-0.714446 0.06357,-1.1421954 0.249043,-1.5995484 0.143831,-0.3547693 0.319606,-0.6644206 0.534956,-0.949059 0.340268,-0.449121 0.782568,-0.8445755 1.173534,-1.2509534 0.423229,-0.399887 0.846299,-0.718562 1.32261,-1.0559171 0.718361,-0.358252 1.224551,-0.6156615 2.022218,-0.718562 0.346307,-0.044643 0.80307,-0.08422 1.522543,-0.1062249 0.308482,-0.0095 0.617441,0.022004 0.925923,0.032928 -0.115224,0.5748179 -0.219959,1.1485278 -0.373484,1.7141637 -0.154321,0.5675357 -0.305463,1.1258897 -0.572782,1.6566977 -0.324693,0.6449487 -0.640803,1.1591345 -1.400168,1.5208692 -0.291476,0.1388365 -0.512706,0.2703908 -0.89509,0.3951378 -0.329937,0.1074914 -0.96931,0.2105501 -1.308465,0.3091763 -0.361565,0.1144572 -0.723129,0.2287558 -1.084534,0.3430546 -0.476153,0.1584667 -0.952305,0.31693344 -1.428457,0.4752418 -0.211695,0.070289 -0.423388,0.1407361 -0.634923,0.21118348 -0.01764,-0.11445693 -0.03528,-0.22891412 -0.05292,-0.34321266 z m 8.911965,-3.54753362 c 0.205813,-1.0157071 0.278762,-1.7480419 0.877131,-2.5959418 0.337725,-0.4779331 0.689594,-0.9097984 1.18752,-1.3125351 0.409561,-0.3311814 0.820711,-0.5933402 1.401439,-0.867847 1.135392,-0.3479619 1.933854,-0.4402557 3.12487,-0.4651102 0.479012,0.058416 0.945789,0.1204729 1.418761,0.2146663 0.607428,0.2461695 1.028116,0.3853228 1.495366,0.8414093 0.270181,0.2634253 0.528442,0.5323914 0.785431,0.822254 0.48108,0.4953473 0.547988,0.6099626 0.659875,1.2892638 0.0561,0.3395718 0.0944,0.6392496 0.0944,0.9826206 -0.215507,-0.1609996 -0.431017,-0.3219993 -0.646524,-0.4829989 -0.431017,-0.2265396 -0.862034,-0.453079 -1.293048,-0.6797767 -0.622686,-0.29477 -1.103448,-0.5202014 -1.777944,-0.6439986 -0.413058,0 -0.826114,0 -1.239172,0 -0.62221,0.068548 -0.991719,0.00791 -1.600419,0.1597333 -0.575324,0.1434274 -1.293208,0.4750835 -1.740435,0.7674793 -0.286232,0.1872788 -0.572305,0.3587269 -0.879039,0.5295417 -0.351711,0.1959857 -0.650339,0.3973541 -0.970899,0.7313849 -0.169101,0.1763555 -0.346784,0.33973 -0.565153,0.4863236 -0.110615,0.074405 -0.221547,0.1491265 -0.332162,0.2235315 z m 6.716673,0.2146662 c 0.03274,-0.225273 0.06564,-0.4510207 0.09869,-0.6762937 0.04466,-0.3071183 0.159407,-0.5748178 0.338045,-0.8363435 0.183721,-0.2695991 0.335183,-0.4765084 0.641914,-0.5578789 0.09552,-0.025329 0.190875,-0.050817 0.286234,-0.076146 0.0067,0.1609996 0.01336,0.3221577 0.02002,0.4829989 0.0089,0.2127666 0.01398,0.3842147 -0.02622,0.5923901 -0.05721,0.2942954 -0.08042,0.3592018 -0.300534,0.5665861 -0.160679,0.1518175 -0.31325,0.2686492 -0.564359,0.3482785 -0.164493,0.052083 -0.329301,0.1043252 -0.493793,0.1564087 z m -4.957643,0.2708657 c 0.263505,-0.279731 0.525738,-0.5412565 0.798938,-0.7959749 0.275742,-0.2567761 0.550849,-0.4465881 0.84455,-0.6186692 0.601389,-0.3527113 0.898269,-0.4019453 1.587705,-0.4334487 0.28655,-0.013297 0.573099,-0.026596 0.859648,-0.039893 -0.148439,0.3861142 -0.294973,0.7594056 -0.422593,1.1406122 -0.164332,0.4913893 -0.321354,0.7011481 -0.60711,0.9272126 -0.332321,0.2629501 -0.488072,0.3607849 -0.906374,0.3832645 -0.253492,0.01393 -0.522401,0.022321 -0.730598,0.052717 -0.67402,-0.039102 -1.088825,0.010289 -1.65064,-0.3631594 0.07549,-0.08422 0.150982,-0.1684403 0.226474,-0.2526611 z m 6.232732,1.5895748 c -0.161631,0.2265396 -0.323261,0.453079 -0.484891,0.6797767 -0.279401,0.2626336 -0.558162,0.5262171 -0.83597,0.79059221 -0.495225,0.47112583 -1.198964,0.74531609 -1.86901,0.81038087 C 55.445883,0.12209603 54.947162,0.16658075 54.403624,0.1399848 53.769655,0.1092731 53.214832,0.09834977 52.605338,-0.07246501 52.044794,-0.22950704 51.540988,-0.32829134 51.049737,-0.63936759 50.844083,-0.76981366 50.63811,-0.90025974 50.432297,-1.0305477 50.18691,-1.215452 49.941523,-1.400356 49.695977,-1.5851022 c 0.149235,-0.2151411 0.18404,-0.2650082 0.333275,-0.4799912 0.272405,-0.3929213 0.49284,-0.5353989 0.966608,-0.637983 0.123329,-0.026754 0.246976,-0.053825 0.370306,-0.080579 0.395098,0.2146662 0.790197,0.4293324 1.185295,0.6439986 0.225521,0.1106574 0.451359,0.2213151 0.677039,0.3319728 0.39939,0.1959858 0.695634,0.292079 1.132372,0.3789902 0.399707,0.079471 0.903672,0.032295 1.308624,-0.025012 0.566584,-0.080262 1.010474,-0.2208402 1.549245,-0.4188843 0.471542,-0.1735058 0.794009,-0.2862215 1.29289,-0.308543 0.222183,-0.010132 0.444524,-0.020106 0.666707,-0.030079 z m 2.335628,-1.6027143 c 0.628722,0.8135468 0.530347,1.3731672 0.592965,2.4021721 -0.07835,0.80357359 -0.14256,1.32773267 -0.467095,2.0614924 -0.504122,0.8800366 -0.621571,0.9215132 -1.581027,1.2727998 -0.544653,-0.00649 -1.024936,-0.032928 -1.505062,-0.090236 C 57.923434,1.7569473 57.381801,1.6825423 56.834131,1.366717 56.699517,1.2891458 56.564587,1.2114165 56.429814,1.1338453 56.567607,1.1069328 56.705399,1.0800203 56.843191,1.0531078 57.817267,0.86377101 58.50146,0.20789927 59.178498,-0.47963426 59.777979,-1.236507 60.30928,-1.9803983 60.831363,-2.7922039 61.05895,-3.1328837 61.286537,-3.473405 61.513966,-3.8139264 Z M 49.302468,0.71765231 c 0.472656,0.34796199 0.945471,0.69608229 1.418286,1.04420239 0.845027,0.285905 1.222484,0.4921811 2.105496,0.6020471 0.60568,0.075355 1.370289,0.2911292 1.933534,0.534291 0.534321,0.173981 1.068801,0.347962 1.60328,0.5221011 0.503489,0.1329792 1.007136,0.2661166 1.510782,0.399254 0.410992,0.081845 0.822142,0.1636909 1.233292,0.2456947 -0.346941,0.4663765 -0.403998,0.5969809 -0.84439,0.9729636 -0.478697,0.4084355 -1.027163,0.6642621 -1.653026,0.7776109 -0.575642,0.030712 -1.151125,0.061424 -1.726608,0.092136 C 54.034908,5.9369232 53.310349,6.037449 52.501239,5.7811475 51.848675,5.5743968 51.660662,5.4775121 51.210733,4.9558857 50.84599,4.5327273 50.522569,4.1078274 50.196604,3.6045649 50.011929,3.1446789 49.805321,2.7042648 49.612221,2.2535609 49.36159,1.6689277 49.345538,1.3018104 49.302468,0.71765231 Z m 14.995781,-5.18333471 0.519382,-0.5183018 1.129191,-0.1127155 0.722494,0.2027931 1.06133,0.4958219 0.948491,0.6308592 0.609652,0.5183018 0.587086,0.5407815 0.541948,1.0590834 0.135568,1.48714945 L 70.440552,1.2578008 70.101714,2.7224703 69.853306,3.1054184 69.130814,2.5196772 68.453298,1.7083466 67.730646,0.82957633 67.346833,-0.0040759 66.962859,-0.61245512 66.19507,-1.6265789 65.607986,-2.5729468 64.998332,-3.2714036 64.07241,-4.0600963 Z m 6.726684,9.508796 c 0.194531,0.09736 0.290841,0.2646917 0.538453,0.5884325 0.404477,0.2969867 0.658603,0.5550294 0.939591,0.9066325 0.248566,0.3118676 0.236964,0.5388819 0.287821,0.9340196 0.101874,0.7972414 -0.03258,1.5458818 -0.243798,2.3062373 -0.122692,0.4415225 -0.171962,0.7193535 -0.467252,1.0663655 -0.24205,0.284955 -0.463755,0.533183 -0.747602,0.775553 -0.203591,0.173823 -0.38779,0.372341 -0.62062,0.504687 -0.534797,0.304111 -0.671637,0.3239 -1.044167,0.385956 -0.456446,0.07583 -0.684668,0.08549 -1.121565,-0.04243 -0.596461,-0.174298 -0.616167,-0.218624 -0.928941,-0.756081 -0.133343,-0.904733 -0.0801,-1.323617 0.154161,-2.2112526 0.260963,-0.6071129 0.50778,-1.2169168 0.748398,-1.8303621 0.20502,-0.5222595 0.351711,-0.9215132 0.691183,-1.3657269 0.08535,-0.111924 0.170851,-0.223848 0.256196,-0.335772 0.288933,-0.2436367 0.370464,-0.3185166 0.622843,-0.5884325 0.259533,-0.2773564 0.545289,-0.5328662 0.935299,-0.3378303 z M 63.886145,-2.199972 c 0.456921,0.3609431 0.831359,0.5783006 1.086758,1.0997686 0.407179,0.83191075 0.976145,1.50218881 1.161935,2.4089795 0.123168,0.5995141 0.281145,1.1585012 0.464548,1.7429757 0.266685,0.9299039 0.419098,1.7407597 0.524149,2.7026416 0.02002,0.9541251 0.05261,1.8257712 -0.220592,2.7395275 C 66.778818,8.9088473 66.64357,9.450737 66.537722,9.6547967 66.383561,10.064182 66.2294,10.473726 66.075239,10.88327 c -0.44087,1.024889 -0.984726,1.422876 -1.819106,2.088405 -0.770331,0.317409 -1.427822,0.465111 -2.250758,0.614237 -1.018421,-0.02026 -1.738371,-0.0877 -2.713241,-0.368543 -0.662102,-0.173981 -1.063717,-0.475716 -1.634113,-0.859931 -0.590581,-0.30886 -1.180845,-0.618986 -1.769679,-0.931645 -0.44834,-0.238254 -0.699448,-0.593657 -1.036061,-0.972489 -0.236328,-0.235563 -0.472655,-0.4709673 -0.709142,-0.7063719 -0.626977,-0.7166622 -1.04067,-1.1795562 -1.387454,-2.0576929 0.910507,0.1073331 1.86901,0.3270651 2.781741,0.2292306 0.826592,-0.088653 1.44578,-0.1082831 2.186233,-0.4769833 C 58.1987,7.2046571 58.582037,6.996798 58.997476,6.6698912 59.397503,6.3556488 59.774641,6.0455226 60.143993,5.6966108 60.681174,5.188599 61.106311,4.7105078 61.554651,4.1227083 61.915898,3.6493661 62.148571,3.2680011 62.390936,2.72532 62.580539,2.2994703 62.74233,1.8657051 62.907298,1.4297238 63.138701,0.8192863 63.297947,0.22911262 63.454652,-0.40538764 63.602298,-1.0026854 63.746127,-1.600933 63.886145,-2.199972 Z M 47.705387,0.05149053 c -0.276696,0.13092098 -0.553551,0.26184222 -0.830406,0.3927632 -0.147169,0.16796509 -0.424977,0.40558614 -0.628407,0.62705967 -0.294337,0.3197832 -0.481874,0.7495905 -0.670046,1.1730654 -0.240619,0.5428398 -0.490297,1.0590836 -0.706441,1.6149045 -0.31182,0.8000908 -0.331368,1.4975976 -0.398754,2.3567376 -0.03798,0.4831573 -0.0213,0.9267374 0.0081,1.4116362 0.02845,0.4722341 0.09584,0.9047327 0.183087,1.3704762 0.08868,0.4720756 0.208039,0.8912764 0.360452,1.3475217 0.195483,0.587166 0.532096,1.047052 0.86394,1.569786 0.09806,0.119523 0.196278,0.239046 0.294337,0.358727 0.28512,0.347962 0.698018,0.498038 1.091845,0.711281 0.427202,0.173979 0.854245,0.34796 1.281447,0.521942 0.916705,0.296037 1.780645,0.561837 2.641248,0.991484 0.731393,0.364268 1.343112,0.803099 2.11376,1.102619 0.604409,0.235722 0.965496,0.604422 1.639198,0.698141 0.470272,0.06554 0.808474,0.04749 1.281447,-0.01155 0.387629,-0.04797 0.633174,-0.201369 0.980594,-0.383265 0.461213,-0.241737 0.661148,-0.532076 0.993944,-0.93608 C 57.628776,13.756729 56.865599,14.034244 56.08462,13.414308 55.264068,12.763818 54.417769,12.266572 53.654272,11.524105 53.166995,10.913193 52.707848,10.316845 52.148734,9.7716308 51.771118,9.4032472 51.439432,9.0723825 51.133335,8.643525 50.727111,8.0740895 50.35617,7.5054457 49.994447,6.8877263 49.752874,6.4751745 49.588541,6.075129 49.437717,5.6503876 49.169603,4.8949396 48.876855,4.153423 48.580611,3.4081069 48.43233,3.0948145 48.284208,2.7816803 48.136086,2.4685463 48.028331,2.0840151 47.944417,1.7425439 47.900711,1.3464561 47.929,0.82878757 48.045178,0.36494396 48.16215,-0.14100985 c -0.152255,0.0642731 -0.304509,0.12838807 -0.456763,0.19250304 z m -2.242335,-0.0669644 C 44.968464,0.13681886 44.473717,0.2894281 43.97897,0.44172082 43.47564,0.59670485 43.045895,0.81247925 42.573716,1.0475671 42.381729,1.1643988 42.189584,1.2812303 41.997756,1.398062 41.607743,1.6355247 41.45978,1.7946247 41.191031,2.1652247 40.972185,2.4007875 40.753339,2.636509 40.534493,2.8720717 40.210119,3.2222501 39.833774,3.5307932 39.480156,3.8516843 39.329491,4.0275652 39.178667,4.2036041 39.028161,4.3793264 38.628771,4.8455447 38.347943,5.3185705 38.08714,5.8740745 37.859394,6.3591318 37.664865,6.734956 37.500691,7.245184 c -0.199933,0.6216773 -0.15289,0.9884778 -0.148758,1.4575456 0.01462,0.1768307 0.02972,0.3538195 0.04434,0.5308083 0.03639,0.4374061 0.08694,0.5797255 0.259055,0.9867361 0.125713,0.29762 0.330891,0.599989 0.541631,0.848059 0.317064,0.373449 0.689754,0.683259 1.053384,1.011907 0.349645,0.316142 0.71407,0.436773 1.149377,0.621836 0.394304,0.167015 0.799097,0.238096 1.216923,0.332607 0.268749,0.06079 0.525738,0.05651 0.801322,0.0638 0.32946,0.0087 0.632062,-0.07583 0.954688,-0.141529 0.46757,-0.09514 0.758729,-0.371391 1.146834,-0.646531 -0.06453,-0.175248 -0.12905,-0.350812 -0.193575,-0.526059 -0.174823,-0.476034 -0.390967,-0.854391 -0.6532,-1.290689 -0.1958,-0.325643 -0.369828,-0.6400429 -0.5313,-0.9835723 C 42.916527,9.0321696 42.792244,8.6232588 42.668756,8.1085981 42.566246,7.6805323 42.495841,7.3309872 42.485987,6.8924727 42.474862,6.3980755 42.584682,6.0021461 42.701813,5.5197804 42.840718,4.947812 43.064967,4.4350509 43.287945,3.8895201 43.528723,3.3017209 43.851032,2.7574564 44.153792,2.1991026 44.376134,1.805548 44.598476,1.4119931 44.820819,1.0184383 45.034896,0.67380088 45.248974,0.32916351 45.463052,-0.01547387 Z"
             class="fil1" />
        </g>
        <g
           id="g11"
           inkscape:label="No"
           style="display:inline;stroke-width:1.1;stroke-dasharray:none">
          <ellipse
             style="display:inline;fill:none;stroke:#000000;stroke-width:6.06654456;stroke-dasharray:none;stroke-opacity:1"
             id="path1-8"
             cx="19.635702"
             cy="19.550289"
             inkscape:label="Boundary"
             rx="18.010103"
             ry="17.930941" />
          <path
             style="fill:none;fill-opacity:1;stroke:#000000;stroke-width:2.76419;stroke-dasharray:none;stroke-opacity:1"
             d="M 38.926937,38.758037 0.35282782,0.35280322"
             id="path8"
             inkscape:label="Cross Out" />
        </g>
      </g>
      <ellipse
         style="display:inline;fill:none;stroke:#646464;stroke-width:1.01109;stroke-dasharray:1.01109, 2.02218;stroke-dashoffset:0.101109;stroke-opacity:1"
         id="path17"
         cx="19.630617"
         cy="19.396223"
         rx="20.768675"
         ry="20.687675"
         inkscape:label="Guide" />
    </g>
    <use
       x="0"
       y="0"
       xlink:href="#layer1"
       id="use2"
       transform="translate(0,233.68047)"
       inkscape:label="use2" />
    <use
       x="0"
       y="0"
       xlink:href="#use3"
       id="use4"
       transform="translate(-71.120142)" />
    <use
       x="0"
       y="0"
       xlink:href="#use2"
       id="use3"
       transform="translate(142.24028)" />
    <use
       x="0"
       y="0"
       xlink:href="#layer1"
       id="use1"
       transform="translate(142.24028,116.84024)" />
    <use
       x="0"
       y="0"
       xlink:href="#layer1"
       id="use6"
       transform="translate(0,175.26036)" />
    <use
       x="0"
       y="0"
       xlink:href="#layer1"
       id="use8"
       transform="translate(71.120141,175.26036)" />
    <use
       x="0"
       y="0"
       xlink:href="#layer1"
       id="use9"
       transform="translate(142.24028,175.26036)" />
    <use
       x="0"
       y="0"
       xlink:href="#layer1"
       id="use10"
       transform="translate(71.120141,116.84024)" />
    <use
       x="0"
       y="0"
       xlink:href="#layer1"
       id="use11"
       transform="translate(0,116.84024)" />
    <use
       x="0"
       y="0"
       xlink:href="#layer1"
       id="use12"
       transform="translate(142.24028,58.420118)" />
    <use
       x="0"
       y="0"
       xlink:href="#layer1"
       id="use13"
       transform="translate(71.120141,58.420118)" />
    <use
       x="0"
       y="0"
       xlink:href="#layer1"
       id="use14"
       transform="translate(0,58.420118)" />
    <use
       x="0"
       y="0"
       xlink:href="#layer1"
       id="use15"
       transform="translate(142.24028)" />
    <use
       x="0"
       y="0"
       xlink:href="#layer1"
       id="use16"
       transform="translate(71.120141)" />
  </g>
</svg>
