<?xml version="1.0" encoding="UTF-8" standalone="no"?>
<!-- Created with Inkscape (http://www.inkscape.org/) -->

<svg
   width="210mm"
   height="297mm"
   viewBox="0 0 210.00042 297.00059"
   version="1.1"
   id="svg1"
   sodipodi:docname="transbian-marxism.svg"
   inkscape:version="1.3.2 (091e20ef0f, 2023-11-25, custom)"
   inkscape:export-filename="transbian-marxism.pdf"
   inkscape:export-xdpi="96"
   inkscape:export-ydpi="96"
   xmlns:inkscape="http://www.inkscape.org/namespaces/inkscape"
   xmlns:sodipodi="http://sodipodi.sourceforge.net/DTD/sodipodi-0.dtd"
   xmlns:xlink="http://www.w3.org/1999/xlink"
   xmlns="http://www.w3.org/2000/svg"
   xmlns:svg="http://www.w3.org/2000/svg">
  <sodipodi:namedview
     id="namedview1"
     pagecolor="#ffffff"
     bordercolor="#000000"
     borderopacity="0.25"
     inkscape:showpageshadow="2"
     inkscape:pageopacity="0.0"
     inkscape:pagecheckerboard="0"
     inkscape:deskcolor="#d1d1d1"
     inkscape:document-units="mm"
     inkscape:zoom="1.4966329"
     inkscape:cx="227.17662"
     inkscape:cy="110.24748"
     inkscape:window-width="1920"
     inkscape:window-height="1016"
     inkscape:window-x="0"
     inkscape:window-y="0"
     inkscape:window-maximized="1"
     inkscape:current-layer="layer1"
     showgrid="false" />
  <defs
     id="defs1">
    <inkscape:path-effect
       effect="powerclip"
       id="path-effect6"
       is_visible="true"
       lpeversion="1"
       inverse="true"
       flatten="false"
       hide_clip="false"
       message="Use fill-rule evenodd on &lt;b&gt;fill and stroke&lt;/b&gt; dialog if no flatten result after convert clip to paths." />
    <inkscape:path-effect
       effect="powerclip"
       id="path-effect4"
       is_visible="true"
       lpeversion="1"
       inverse="true"
       flatten="false"
       hide_clip="false"
       message="Use fill-rule evenodd on &lt;b&gt;fill and stroke&lt;/b&gt; dialog if no flatten result after convert clip to paths." />
    <clipPath
       clipPathUnits="userSpaceOnUse"
       id="clipPath5">
      <g
         inkscape:label="Clip"
         id="use5" />
    </clipPath>
    <clipPath
       clipPathUnits="userSpaceOnUse"
       id="clipPath7">
      <g
         inkscape:label="Clip"
         id="use7" />
    </clipPath>
    <inkscape:path-effect
       effect="powerclip"
       id="path-effect15"
       is_visible="true"
       lpeversion="1"
       inverse="true"
       flatten="false"
       hide_clip="false"
       message="Use fill-rule evenodd on &lt;b&gt;fill and stroke&lt;/b&gt; dialog if no flatten result after convert clip to paths." />
    <clipPath
       clipPathUnits="userSpaceOnUse"
       id="clipPath6">
      <path
         style="display:block;fill:#808080;stroke-width:2.38506"
         d="M 11.903688,52.499434 24.043743,-1.5911012 41.773834,33.198624 Z"
         id="path6"
         inkscape:label="Clip" />
    </clipPath>
    <clipPath
       clipPathUnits="userSpaceOnUse"
       id="clipPath17">
      <ellipse
         style="display:inline;fill:#8c8c8c;fill-opacity:1;stroke:none;stroke-width:1.81412;stroke-dasharray:none;stroke-opacity:1"
         id="circle17"
         cx="19.640163"
         cy="19.554756"
         inkscape:label="Clip"
         rx="20.261435"
         ry="20.182274" />
    </clipPath>
  </defs>
  <g
     id="g38"
     inkscape:label="Buttons"
     transform="translate(3.7041739,-1.5875031)"
     inkscape:groupmode="layer">
    <g
       inkscape:label="Button"
       id="layer1"
       clip-path="none"
       style="display:inline"
       transform="matrix(1.2536156,0,0,1.2585327,6.1725689,8.2840735)">
      <g
         id="g1"
         inkscape:label="Button"
         clip-path="url(#clipPath17)"
         style="stroke-width:1.00983;stroke-dasharray:none">
        <path
           fill="#993399"
           d="M -0.8583785,-2.4045222 H 42.237693 V 41.608279 H -0.8583785 Z"
           id="path1-3"
           style="fill:#5bcefa;fill-opacity:1;stroke-width:1.00993;stroke-dasharray:none"
           inkscape:label="Background" />
        <g
           id="g3"
           inkscape:label="Trans"
           transform="matrix(0.25511811,0,0,0.32220001,14.492517,14.655904)"
           style="display:inline">
          <rect
             fill="#5bcefa"
             width="168.84529"
             height="100.91136"
             id="rect1"
             x="-64.863892"
             y="-34.753414"
             style="stroke-width:0.210644" />
          <rect
             fill="#f5a9b8"
             width="168.84529"
             height="60.546818"
             y="-14.571143"
             id="rect2"
             x="-64.863892"
             style="stroke-width:0.210644" />
          <rect
             fill="#ffffff"
             width="168.84529"
             height="20.182274"
             y="5.6111298"
             id="rect3"
             x="-64.863892"
             style="stroke-width:0.210644" />
        </g>
        <g
           id="g2"
           inkscape:label="Emblem"
           transform="matrix(0.21090016,0,0,0.21007613,17.106984,-5.3647485)"
           style="stroke-width:4.31048;stroke-dasharray:none">
          <path
             d="M 11.756215,184.76367 -48.762808,79.709399 H 72.271793 Z"
             id="path2-02"
             style="stroke-width:4.31049;stroke-dasharray:none"
             inkscape:label="Black Triangle" />
          <g
             style="fill:#ffffff;fill-opacity:1;stroke-width:13.3406;stroke-dasharray:none"
             id="g2900"
             transform="matrix(0.32353284,0,0,0.32268887,-52.93358,48.953236)"
             inkscape:label="Worker">
            <path
               id="rect4165-6"
               d="m 137.43744,171.69421 18.86296,18.9937 17.78834,-17.66589 c 27.05847,29.021 55.43807,56.99501 82.28704,86.12782 4.03444,4.06233 10.59815,4.085 14.66056,0.0506 4.06232,-4.03445 4.08499,-10.59815 0.0506,-14.66056 -28.81871,-27.1901 -57.72545,-54.60143 -86.55328,-81.89095 l 23.96499,-23.80003 -33.34026,-4.61605 z"
               style="fill:#ffffff;fill-opacity:1;stroke:none;stroke-width:13.3406;stroke-miterlimit:4;stroke-dasharray:none;stroke-dashoffset:0;stroke-opacity:1" />
            <path
               id="path4179-3"
               d="m 198.2887,110.1955 c 15.51743,8.7394 27.29872,21.28122 34.2484,34.3924 7.04394,13.28902 10.13959,27.16218 10.20325,38.25433 0.13054,22.74374 -18.43771,41.18184 -41.18183,41.18184 -12.13597,0 -23.04607,-5.24868 -30.58302,-13.60085 l -4.16863,3.51033 c -0.70999,-0.27231 -1.46387,-0.41221 -2.22429,-0.41276 -1.82948,1.9e-4 -3.56621,0.80531 -4.74859,2.20136 -2.97368,0.38896 -5.46251,2.44529 -6.40534,5.29224 -3.13486,6.28843 -8.63524,11.21997 -15.29104,13.4776 -0.0637,0.0216 -0.11992,0.05 -0.1758,0.0783 -3.07749,1.12758 -6.16259,3.1643 -8.78919,5.80245 -5.19155,5.23656 -7.72858,11.93658 -6.30024,16.63822 -0.14098,0.40857 -0.21361,0.83759 -0.21498,1.26979 1.5e-4,2.17082 1.75991,3.93058 3.93073,3.93073 0.54341,-0.002 1.08053,-0.11639 1.57745,-0.33632 4.69369,1.05881 11.06885,-1.54582 16.05444,-6.55917 2.82624,-2.85072 4.94356,-6.22349 5.98303,-9.53062 2.31696,-6.62278 7.29699,-12.01856 13.62281,-15.05312 0.15105,-0.0725 0.27303,-0.14714 0.38218,-0.22358 2.12082,-1.01408 3.67251,-2.92895 4.225,-5.2139 9.70222,11.44481 24.25255,18.75299 40.51876,19.13577 29.83352,0.70205 52.13299,-21.25802 53.16414,-52.83642 0.51894,-15.89259 -5.62993,-36.3847 -19.6412,-53.19089 -10.70835,-12.84441 -26.40987,-23.50795 -44.18699,-28.20777 z"
               style="fill:#ffffff;fill-opacity:1;stroke:none;stroke-width:13.3406;stroke-miterlimit:4;stroke-dasharray:none;stroke-dashoffset:0;stroke-opacity:1" />
          </g>
        </g>
      </g>
      <ellipse
         style="fill:none;stroke:#646464;stroke-width:1.01109;stroke-dasharray:1.01109, 2.02218;stroke-dashoffset:0.101109;stroke-opacity:1"
         id="path17"
         cx="19.659254"
         cy="19.559103"
         rx="20.768675"
         ry="20.687675"
         inkscape:label="Guide" />
    </g>
    <use
       x="0"
       y="0"
       xlink:href="#layer1"
       id="use2"
       transform="translate(0,233.68047)"
       inkscape:label="use2" />
    <use
       x="0"
       y="0"
       xlink:href="#use3"
       id="use4"
       transform="translate(-71.120142)" />
    <use
       x="0"
       y="0"
       xlink:href="#use2"
       id="use3"
       transform="translate(142.24028)" />
    <use
       x="0"
       y="0"
       xlink:href="#layer1"
       id="use1"
       transform="translate(142.24028,116.84024)" />
    <use
       x="0"
       y="0"
       xlink:href="#layer1"
       id="use6"
       transform="translate(0,175.26036)" />
    <use
       x="0"
       y="0"
       xlink:href="#layer1"
       id="use8"
       transform="translate(71.120141,175.26036)" />
    <use
       x="0"
       y="0"
       xlink:href="#layer1"
       id="use9"
       transform="translate(142.24028,175.26036)" />
    <use
       x="0"
       y="0"
       xlink:href="#layer1"
       id="use10"
       transform="translate(71.120141,116.84024)" />
    <use
       x="0"
       y="0"
       xlink:href="#layer1"
       id="use11"
       transform="translate(0,116.84024)" />
    <use
       x="0"
       y="0"
       xlink:href="#layer1"
       id="use12"
       transform="translate(142.24028,58.420118)" />
    <use
       x="0"
       y="0"
       xlink:href="#layer1"
       id="use13"
       transform="translate(71.120141,58.420118)" />
    <use
       x="0"
       y="0"
       xlink:href="#layer1"
       id="use14"
       transform="translate(0,58.420118)" />
    <use
       x="0"
       y="0"
       xlink:href="#layer1"
       id="use15"
       transform="translate(142.24028)" />
    <use
       x="0"
       y="0"
       xlink:href="#layer1"
       id="use16"
       transform="translate(71.120141)" />
  </g>
</svg>
