<?xml version="1.0" encoding="UTF-8" standalone="no"?>
<!-- Created with Inkscape (http://www.inkscape.org/) -->

<svg
   width="210mm"
   height="297mm"
   viewBox="0 0 210.00042 297.00059"
   version="1.1"
   id="svg1"
   sodipodi:docname="canada-chauvinism.svg"
   inkscape:version="1.3.2 (091e20ef0f, 2023-11-25, custom)"
   inkscape:export-filename="canada-chauvinism.pdf"
   inkscape:export-xdpi="96"
   inkscape:export-ydpi="96"
   xmlns:inkscape="http://www.inkscape.org/namespaces/inkscape"
   xmlns:sodipodi="http://sodipodi.sourceforge.net/DTD/sodipodi-0.dtd"
   xmlns:xlink="http://www.w3.org/1999/xlink"
   xmlns="http://www.w3.org/2000/svg"
   xmlns:svg="http://www.w3.org/2000/svg">
  <sodipodi:namedview
     id="namedview1"
     pagecolor="#ffffff"
     bordercolor="#000000"
     borderopacity="0.25"
     inkscape:showpageshadow="2"
     inkscape:pageopacity="0.0"
     inkscape:pagecheckerboard="0"
     inkscape:deskcolor="#d1d1d1"
     inkscape:document-units="mm"
     inkscape:zoom="1.0582793"
     inkscape:cx="309.93708"
     inkscape:cy="147.4091"
     inkscape:window-width="1920"
     inkscape:window-height="1016"
     inkscape:window-x="0"
     inkscape:window-y="0"
     inkscape:window-maximized="1"
     inkscape:current-layer="g11"
     showgrid="false" />
  <defs
     id="defs1">
    <inkscape:path-effect
       effect="powerclip"
       id="path-effect6"
       is_visible="true"
       lpeversion="1"
       inverse="true"
       flatten="false"
       hide_clip="false"
       message="Use fill-rule evenodd on &lt;b&gt;fill and stroke&lt;/b&gt; dialog if no flatten result after convert clip to paths." />
    <inkscape:path-effect
       effect="powerclip"
       id="path-effect4"
       is_visible="true"
       lpeversion="1"
       inverse="true"
       flatten="false"
       hide_clip="false"
       message="Use fill-rule evenodd on &lt;b&gt;fill and stroke&lt;/b&gt; dialog if no flatten result after convert clip to paths." />
    <clipPath
       clipPathUnits="userSpaceOnUse"
       id="clipPath5">
      <g
         inkscape:label="Clip"
         id="use5" />
    </clipPath>
    <clipPath
       clipPathUnits="userSpaceOnUse"
       id="clipPath7">
      <g
         inkscape:label="Clip"
         id="use7" />
    </clipPath>
    <clipPath
       clipPathUnits="userSpaceOnUse"
       id="clipPath1">
      <ellipse
         style="display:inline;fill:#8c8c8c;fill-opacity:1;stroke:none;stroke-width:1.81412;stroke-dasharray:none;stroke-opacity:1"
         id="circle1"
         cx="19.640165"
         cy="19.554754"
         inkscape:label="Clip"
         rx="20.261435"
         ry="20.182274" />
    </clipPath>
    <inkscape:path-effect
       effect="powerclip"
       id="path-effect15"
       is_visible="true"
       lpeversion="1"
       inverse="true"
       flatten="false"
       hide_clip="false"
       message="Use fill-rule evenodd on &lt;b&gt;fill and stroke&lt;/b&gt; dialog if no flatten result after convert clip to paths." />
    <clipPath
       clipPathUnits="userSpaceOnUse"
       id="clipPath6">
      <path
         style="display:block;fill:#808080;stroke-width:2.38506"
         d="M 11.903688,52.499434 24.043743,-1.5911012 41.773834,33.198624 Z"
         id="path6"
         inkscape:label="Clip" />
    </clipPath>
  </defs>
  <g
     id="g38"
     inkscape:label="Buttons"
     transform="translate(3.7041739,-1.5875031)"
     inkscape:groupmode="layer">
    <g
       inkscape:label="Button"
       id="layer1"
       clip-path="url(#clipPath1)"
       style="display:inline"
       transform="matrix(1.2536156,0,0,1.2585327,6.1725689,8.2840735)">
      <rect
         style="display:inline;fill:#ffffff;stroke-width:2.28772;stroke-dasharray:none"
         id="rect1"
         width="40.522869"
         height="40.364548"
         x="-0.62127167"
         y="-0.62751943"
         inkscape:label="background" />
      <g
         id="g11"
         inkscape:label="No"
         style="display:inline;stroke-width:1.1;stroke-dasharray:none">
        <g
           id="g8"
           inkscape:label="Flag"
           transform="matrix(0.56382748,0,0,0.53253074,5.0952475,5.8773932)"
           style="display:inline">
          <path
             fill="#d52b1e"
             d="M -13.759271,6.1461547 H 6.0845165 l 0.818556,0.818556 H 44.953539 l 0.818555,-0.818556 H 65.615881 V 45.833731 H 45.772094 L 44.953539,45.015175 H 6.9030735 l -0.818557,0.818556 H -13.759271 Z"
             id="path1-6"
             style="stroke-width:0.00826825"
             inkscape:label="path1-6" />
          <path
             fill="#ffffff"
             d="M 6.2068405,6.1461547 H 45.894418 V 45.833731 H 6.2068405 Z M 26.794771,42.77448 26.4227,35.638985 a 0.7854833,0.7854833 0 0 1 0.917776,-0.810288 l 7.102422,1.248505 -0.959116,-2.645839 a 0.5374359,0.5374359 0 0 1 0.165365,-0.603582 l 7.780417,-6.300402 -1.752868,-0.818557 a 0.5374359,0.5374359 0 0 1 -0.28112,-0.653191 l 1.537895,-4.729436 -4.48139,0.950848 A 0.5374359,0.5374359 0 0 1 35.848499,20.96285 l -0.868165,-2.042257 -3.497468,3.753784 a 0.5374359,0.5374359 0 0 1 -0.917775,-0.47129 l 1.686722,-8.698194 -2.703716,1.562698 A 0.5374359,0.5374359 0 0 1 28.795686,14.844348 L 26.050629,9.4534527 23.305572,14.844348 a 0.5374359,0.5374359 0 0 1 -0.75241,0.223243 l -2.703716,-1.562698 1.686721,8.698194 a 0.5374359,0.5374359 0 0 1 -0.917775,0.47129 l -3.497467,-3.753784 -0.868166,2.042257 a 0.5374359,0.5374359 0 0 1 -0.603582,0.314193 l -4.481389,-0.950848 1.537894,4.729436 a 0.5374359,0.5374359 0 0 1 -0.28112,0.653192 l -1.752868,0.818556 7.780418,6.300403 a 0.5374359,0.5374359 0 0 1 0.165365,0.603581 l -0.959117,2.645839 7.102423,-1.248505 a 0.7854833,0.7854833 0 0 1 0.917775,0.810288 l -0.372071,7.135495 z"
             id="path2"
             style="stroke-width:0.00826825" />
        </g>
        <ellipse
           style="display:inline;fill:none;stroke:#000000;stroke-width:6.06654456;stroke-dasharray:none;stroke-opacity:1"
           id="path1-8"
           cx="19.635702"
           cy="19.550289"
           inkscape:label="Boundary"
           rx="18.010103"
           ry="17.930941" />
        <path
           style="fill:none;fill-opacity:1;stroke:#000000;stroke-width:2.76419;stroke-dasharray:none;stroke-opacity:1"
           d="M 38.926937,38.758037 0.35282782,0.35280322"
           id="path8"
           inkscape:label="Cross Out" />
      </g>
    </g>
    <use
       x="0"
       y="0"
       xlink:href="#layer1"
       id="use2"
       transform="translate(0,233.68047)"
       inkscape:label="use2" />
    <use
       x="0"
       y="0"
       xlink:href="#use3"
       id="use4"
       transform="translate(-71.120142)" />
    <use
       x="0"
       y="0"
       xlink:href="#use2"
       id="use3"
       transform="translate(142.24028)" />
    <use
       x="0"
       y="0"
       xlink:href="#layer1"
       id="use1"
       transform="translate(142.24028,116.84024)" />
    <use
       x="0"
       y="0"
       xlink:href="#layer1"
       id="use6"
       transform="translate(0,175.26036)" />
    <use
       x="0"
       y="0"
       xlink:href="#layer1"
       id="use8"
       transform="translate(71.120141,175.26036)" />
    <use
       x="0"
       y="0"
       xlink:href="#layer1"
       id="use9"
       transform="translate(142.24028,175.26036)" />
    <use
       x="0"
       y="0"
       xlink:href="#layer1"
       id="use10"
       transform="translate(71.120141,116.84024)" />
    <use
       x="0"
       y="0"
       xlink:href="#layer1"
       id="use11"
       transform="translate(0,116.84024)" />
    <use
       x="0"
       y="0"
       xlink:href="#layer1"
       id="use12"
       transform="translate(142.24028,58.420118)" />
    <use
       x="0"
       y="0"
       xlink:href="#layer1"
       id="use13"
       transform="translate(71.120141,58.420118)" />
    <use
       x="0"
       y="0"
       xlink:href="#layer1"
       id="use14"
       transform="translate(0,58.420118)" />
    <use
       x="0"
       y="0"
       xlink:href="#layer1"
       id="use15"
       transform="translate(142.24028)" />
    <use
       x="0"
       y="0"
       xlink:href="#layer1"
       id="use16"
       transform="translate(71.120141)" />
  </g>
</svg>
